<?xml version="1.0" encoding="utf-8" standalone="no"?>
<!DOCTYPE svg PUBLIC "-//W3C//DTD SVG 1.1//EN"
  "http://www.w3.org/Graphics/SVG/1.1/DTD/svg11.dtd">
<svg xmlns:xlink="http://www.w3.org/1999/xlink" width="418.642523pt" height="257.644596pt" viewBox="0 0 418.642523 257.644596" xmlns="http://www.w3.org/2000/svg" version="1.1">
 <metadata>
  <rdf:RDF xmlns:dc="http://purl.org/dc/elements/1.1/" xmlns:cc="http://creativecommons.org/ns#" xmlns:rdf="http://www.w3.org/1999/02/22-rdf-syntax-ns#">
   <cc:Work>
    <dc:type rdf:resource="http://purl.org/dc/dcmitype/StillImage"/>
    <dc:date>2023-03-10T22:54:41.696375</dc:date>
    <dc:format>image/svg+xml</dc:format>
    <dc:creator>
     <cc:Agent>
      <dc:title>Matplotlib v3.7.0, https://matplotlib.org/</dc:title>
     </cc:Agent>
    </dc:creator>
   </cc:Work>
  </rdf:RDF>
 </metadata>
 <defs>
  <style type="text/css">*{stroke-linejoin: round; stroke-linecap: butt}</style>
 </defs>
 <g id="figure_1">
  <g id="patch_1">
   <path d="M 0 257.644596 
L 418.642523 257.644596 
L 418.642523 0 
L 0 0 
z
" style="fill: #ffffff"/>
  </g>
  <g id="axes_1">
   <g id="patch_2">
    <path d="M 80.242523 225.36 
L 415.042523 225.36 
L 415.042523 3.6 
L 80.242523 3.6 
z
" style="fill: #ffffff"/>
   </g>
   <g id="matplotlib.axis_1">
    <g id="xtick_1">
     <g id="line2d_1">
      <defs>
       <path id="mfe4d9b4c44" d="M 0 0 
L 0 -3 
" style="stroke: #000000; stroke-width: 0.5"/>
      </defs>
      <g>
       <use xlink:href="#mfe4d9b4c44" x="95.460704" y="225.36" style="stroke: #000000; stroke-width: 0.5"/>
      </g>
     </g>
     <g id="line2d_2">
      <defs>
       <path id="m6038f5af10" d="M 0 0 
L 0 3 
" style="stroke: #000000; stroke-width: 0.5"/>
      </defs>
      <g>
       <use xlink:href="#m6038f5af10" x="95.460704" y="3.6" style="stroke: #000000; stroke-width: 0.5"/>
      </g>
     </g>
     <g id="text_1">
      <!-- $\mathdefault{10^{-1}}$ -->
      <g transform="translate(84.197369 237.093772) scale(0.12 -0.12)">
       <defs>
        <path id="CMR17-31" d="M 1702 4058 
C 1702 4192 1696 4192 1606 4192 
C 1357 3916 979 3827 621 3827 
C 602 3827 570 3827 563 3808 
C 557 3795 557 3782 557 3648 
C 755 3648 1088 3686 1344 3839 
L 1344 461 
C 1344 236 1331 160 781 160 
L 589 160 
L 589 0 
C 896 0 1216 0 1523 0 
C 1830 0 2150 0 2458 0 
L 2458 160 
L 2266 160 
C 1715 160 1702 230 1702 458 
L 1702 4058 
z
" transform="scale(0.015625)"/>
        <path id="CMR17-30" d="M 2688 2025 
C 2688 2416 2682 3080 2413 3591 
C 2176 4039 1798 4198 1466 4198 
C 1158 4198 768 4058 525 3597 
C 269 3118 243 2524 243 2025 
C 243 1661 250 1106 448 619 
C 723 -39 1216 -128 1466 -128 
C 1760 -128 2208 -7 2470 600 
C 2662 1042 2688 1559 2688 2025 
z
M 1466 -26 
C 1056 -26 813 325 723 812 
C 653 1188 653 1738 653 2096 
C 653 2588 653 2997 736 3387 
C 858 3929 1216 4096 1466 4096 
C 1728 4096 2067 3923 2189 3400 
C 2272 3036 2278 2607 2278 2096 
C 2278 1680 2278 1169 2202 792 
C 2067 95 1690 -26 1466 -26 
z
" transform="scale(0.015625)"/>
        <path id="CMSY10-0" d="M 4218 1472 
C 4326 1472 4442 1472 4442 1600 
C 4442 1728 4326 1728 4218 1728 
L 755 1728 
C 646 1728 531 1728 531 1600 
C 531 1472 646 1472 755 1472 
L 4218 1472 
z
" transform="scale(0.015625)"/>
       </defs>
       <use xlink:href="#CMR17-31" transform="scale(0.996264)"/>
       <use xlink:href="#CMR17-30" transform="translate(45.690477 0) scale(0.996264)"/>
       <use xlink:href="#CMSY10-0" transform="translate(91.380954 36.153639) scale(0.697382)"/>
       <use xlink:href="#CMR17-31" transform="translate(145.621947 36.153639) scale(0.697382)"/>
      </g>
     </g>
    </g>
    <g id="xtick_2">
     <g id="line2d_3">
      <g>
       <use xlink:href="#mfe4d9b4c44" x="227.733485" y="225.36" style="stroke: #000000; stroke-width: 0.5"/>
      </g>
     </g>
     <g id="line2d_4">
      <g>
       <use xlink:href="#m6038f5af10" x="227.733485" y="3.6" style="stroke: #000000; stroke-width: 0.5"/>
      </g>
     </g>
     <g id="text_2">
      <!-- $\mathdefault{10^{0}}$ -->
      <g transform="translate(219.763404 237.093772) scale(0.12 -0.12)">
       <use xlink:href="#CMR17-31" transform="scale(0.996264)"/>
       <use xlink:href="#CMR17-30" transform="translate(45.690477 0) scale(0.996264)"/>
       <use xlink:href="#CMR17-30" transform="translate(91.380954 36.153639) scale(0.697382)"/>
      </g>
     </g>
    </g>
    <g id="xtick_3">
     <g id="line2d_5">
      <g>
       <use xlink:href="#mfe4d9b4c44" x="360.006266" y="225.36" style="stroke: #000000; stroke-width: 0.5"/>
      </g>
     </g>
     <g id="line2d_6">
      <g>
       <use xlink:href="#m6038f5af10" x="360.006266" y="3.6" style="stroke: #000000; stroke-width: 0.5"/>
      </g>
     </g>
     <g id="text_3">
      <!-- $\mathdefault{10^{1}}$ -->
      <g transform="translate(352.036184 237.093772) scale(0.12 -0.12)">
       <use xlink:href="#CMR17-31" transform="scale(0.996264)"/>
       <use xlink:href="#CMR17-30" transform="translate(45.690477 0) scale(0.996264)"/>
       <use xlink:href="#CMR17-31" transform="translate(91.380954 36.153639) scale(0.697382)"/>
      </g>
     </g>
    </g>
    <g id="xtick_4">
     <g id="line2d_7">
      <defs>
       <path id="m082ee188e8" d="M 0 0 
L 0 -1.5 
" style="stroke: #000000; stroke-width: 0.5"/>
      </defs>
      <g>
       <use xlink:href="#m082ee188e8" x="82.642147" y="225.36" style="stroke: #000000; stroke-width: 0.5"/>
      </g>
     </g>
     <g id="line2d_8">
      <defs>
       <path id="meeb55c613b" d="M 0 0 
L 0 1.5 
" style="stroke: #000000; stroke-width: 0.5"/>
      </defs>
      <g>
       <use xlink:href="#meeb55c613b" x="82.642147" y="3.6" style="stroke: #000000; stroke-width: 0.5"/>
      </g>
     </g>
    </g>
    <g id="xtick_5">
     <g id="line2d_9">
      <g>
       <use xlink:href="#m082ee188e8" x="89.408234" y="225.36" style="stroke: #000000; stroke-width: 0.5"/>
      </g>
     </g>
     <g id="line2d_10">
      <g>
       <use xlink:href="#meeb55c613b" x="89.408234" y="3.6" style="stroke: #000000; stroke-width: 0.5"/>
      </g>
     </g>
    </g>
    <g id="xtick_6">
     <g id="line2d_11">
      <g>
       <use xlink:href="#m082ee188e8" x="135.278779" y="225.36" style="stroke: #000000; stroke-width: 0.5"/>
      </g>
     </g>
     <g id="line2d_12">
      <g>
       <use xlink:href="#meeb55c613b" x="135.278779" y="3.6" style="stroke: #000000; stroke-width: 0.5"/>
      </g>
     </g>
    </g>
    <g id="xtick_7">
     <g id="line2d_13">
      <g>
       <use xlink:href="#m082ee188e8" x="158.57086" y="225.36" style="stroke: #000000; stroke-width: 0.5"/>
      </g>
     </g>
     <g id="line2d_14">
      <g>
       <use xlink:href="#meeb55c613b" x="158.57086" y="3.6" style="stroke: #000000; stroke-width: 0.5"/>
      </g>
     </g>
    </g>
    <g id="xtick_8">
     <g id="line2d_15">
      <g>
       <use xlink:href="#m082ee188e8" x="175.096854" y="225.36" style="stroke: #000000; stroke-width: 0.5"/>
      </g>
     </g>
     <g id="line2d_16">
      <g>
       <use xlink:href="#meeb55c613b" x="175.096854" y="3.6" style="stroke: #000000; stroke-width: 0.5"/>
      </g>
     </g>
    </g>
    <g id="xtick_9">
     <g id="line2d_17">
      <g>
       <use xlink:href="#m082ee188e8" x="187.915411" y="225.36" style="stroke: #000000; stroke-width: 0.5"/>
      </g>
     </g>
     <g id="line2d_18">
      <g>
       <use xlink:href="#meeb55c613b" x="187.915411" y="3.6" style="stroke: #000000; stroke-width: 0.5"/>
      </g>
     </g>
    </g>
    <g id="xtick_10">
     <g id="line2d_19">
      <g>
       <use xlink:href="#m082ee188e8" x="198.388934" y="225.36" style="stroke: #000000; stroke-width: 0.5"/>
      </g>
     </g>
     <g id="line2d_20">
      <g>
       <use xlink:href="#meeb55c613b" x="198.388934" y="3.6" style="stroke: #000000; stroke-width: 0.5"/>
      </g>
     </g>
    </g>
    <g id="xtick_11">
     <g id="line2d_21">
      <g>
       <use xlink:href="#m082ee188e8" x="207.244172" y="225.36" style="stroke: #000000; stroke-width: 0.5"/>
      </g>
     </g>
     <g id="line2d_22">
      <g>
       <use xlink:href="#meeb55c613b" x="207.244172" y="3.6" style="stroke: #000000; stroke-width: 0.5"/>
      </g>
     </g>
    </g>
    <g id="xtick_12">
     <g id="line2d_23">
      <g>
       <use xlink:href="#m082ee188e8" x="214.914928" y="225.36" style="stroke: #000000; stroke-width: 0.5"/>
      </g>
     </g>
     <g id="line2d_24">
      <g>
       <use xlink:href="#meeb55c613b" x="214.914928" y="3.6" style="stroke: #000000; stroke-width: 0.5"/>
      </g>
     </g>
    </g>
    <g id="xtick_13">
     <g id="line2d_25">
      <g>
       <use xlink:href="#m082ee188e8" x="221.681015" y="225.36" style="stroke: #000000; stroke-width: 0.5"/>
      </g>
     </g>
     <g id="line2d_26">
      <g>
       <use xlink:href="#meeb55c613b" x="221.681015" y="3.6" style="stroke: #000000; stroke-width: 0.5"/>
      </g>
     </g>
    </g>
    <g id="xtick_14">
     <g id="line2d_27">
      <g>
       <use xlink:href="#m082ee188e8" x="267.55156" y="225.36" style="stroke: #000000; stroke-width: 0.5"/>
      </g>
     </g>
     <g id="line2d_28">
      <g>
       <use xlink:href="#meeb55c613b" x="267.55156" y="3.6" style="stroke: #000000; stroke-width: 0.5"/>
      </g>
     </g>
    </g>
    <g id="xtick_15">
     <g id="line2d_29">
      <g>
       <use xlink:href="#m082ee188e8" x="290.84364" y="225.36" style="stroke: #000000; stroke-width: 0.5"/>
      </g>
     </g>
     <g id="line2d_30">
      <g>
       <use xlink:href="#meeb55c613b" x="290.84364" y="3.6" style="stroke: #000000; stroke-width: 0.5"/>
      </g>
     </g>
    </g>
    <g id="xtick_16">
     <g id="line2d_31">
      <g>
       <use xlink:href="#m082ee188e8" x="307.369635" y="225.36" style="stroke: #000000; stroke-width: 0.5"/>
      </g>
     </g>
     <g id="line2d_32">
      <g>
       <use xlink:href="#meeb55c613b" x="307.369635" y="3.6" style="stroke: #000000; stroke-width: 0.5"/>
      </g>
     </g>
    </g>
    <g id="xtick_17">
     <g id="line2d_33">
      <g>
       <use xlink:href="#m082ee188e8" x="320.188191" y="225.36" style="stroke: #000000; stroke-width: 0.5"/>
      </g>
     </g>
     <g id="line2d_34">
      <g>
       <use xlink:href="#meeb55c613b" x="320.188191" y="3.6" style="stroke: #000000; stroke-width: 0.5"/>
      </g>
     </g>
    </g>
    <g id="xtick_18">
     <g id="line2d_35">
      <g>
       <use xlink:href="#m082ee188e8" x="330.661715" y="225.36" style="stroke: #000000; stroke-width: 0.5"/>
      </g>
     </g>
     <g id="line2d_36">
      <g>
       <use xlink:href="#meeb55c613b" x="330.661715" y="3.6" style="stroke: #000000; stroke-width: 0.5"/>
      </g>
     </g>
    </g>
    <g id="xtick_19">
     <g id="line2d_37">
      <g>
       <use xlink:href="#m082ee188e8" x="339.516953" y="225.36" style="stroke: #000000; stroke-width: 0.5"/>
      </g>
     </g>
     <g id="line2d_38">
      <g>
       <use xlink:href="#meeb55c613b" x="339.516953" y="3.6" style="stroke: #000000; stroke-width: 0.5"/>
      </g>
     </g>
    </g>
    <g id="xtick_20">
     <g id="line2d_39">
      <g>
       <use xlink:href="#m082ee188e8" x="347.187709" y="225.36" style="stroke: #000000; stroke-width: 0.5"/>
      </g>
     </g>
     <g id="line2d_40">
      <g>
       <use xlink:href="#meeb55c613b" x="347.187709" y="3.6" style="stroke: #000000; stroke-width: 0.5"/>
      </g>
     </g>
    </g>
    <g id="xtick_21">
     <g id="line2d_41">
      <g>
       <use xlink:href="#m082ee188e8" x="353.953796" y="225.36" style="stroke: #000000; stroke-width: 0.5"/>
      </g>
     </g>
     <g id="line2d_42">
      <g>
       <use xlink:href="#meeb55c613b" x="353.953796" y="3.6" style="stroke: #000000; stroke-width: 0.5"/>
      </g>
     </g>
    </g>
    <g id="xtick_22">
     <g id="line2d_43">
      <g>
       <use xlink:href="#m082ee188e8" x="399.824341" y="225.36" style="stroke: #000000; stroke-width: 0.5"/>
      </g>
     </g>
     <g id="line2d_44">
      <g>
       <use xlink:href="#meeb55c613b" x="399.824341" y="3.6" style="stroke: #000000; stroke-width: 0.5"/>
      </g>
     </g>
    </g>
    <g id="text_4">
     <!-- Частота, $\log$ Гц -->
     <g transform="translate(206.032356 251.72) scale(0.12 -0.12)">
      <defs>
       <path id="SFRM3583-d7" d="M 467 4365 
L 467 4224 
L 595 4224 
C 742 4224 877 4205 877 3994 
L 877 2817 
C 877 2308 1421 1997 1869 1997 
L 2176 1997 
C 2541 1997 2925 1997 3264 2131 
L 3264 398 
C 3264 180 3181 141 2854 141 
L 2854 0 
L 3987 0 
L 3987 141 
L 3878 141 
C 3712 141 3571 160 3571 410 
C 3571 460 3578 505 3578 556 
L 3578 3955 
C 3578 4205 3686 4224 3987 4224 
L 3987 4365 
L 2854 4365 
L 2854 4224 
L 2970 4224 
C 3130 4224 3264 4205 3264 3982 
L 3264 2309 
C 3264 2112 2470 2112 2086 2112 
L 1798 2112 
C 1389 2112 1190 2490 1190 2855 
L 1190 4007 
C 1190 4224 1363 4224 1600 4224 
L 1600 4365 
L 467 4365 
z
" transform="scale(0.015625)"/>
       <path id="SFRM3583-e0" d="M 576 2080 
C 659 2413 883 2740 1274 2740 
C 1619 2740 1869 2415 1920 2101 
C 1933 2018 1933 1928 1933 1846 
L 1933 1597 
C 1318 1597 474 1456 320 686 
C 314 647 314 603 314 564 
C 314 134 800 -32 1133 -32 
C 1446 -32 1856 177 1939 535 
L 1946 535 
C 1946 268 2125 0 2394 0 
C 2746 0 2829 376 2829 650 
L 2829 936 
L 2746 936 
L 2746 612 
C 2746 408 2701 115 2470 115 
C 2208 115 2195 453 2195 625 
L 2195 1810 
C 2195 1969 2189 2134 2125 2288 
C 1990 2599 1638 2816 1293 2816 
C 800 2816 480 2386 480 1918 
C 480 1798 570 1728 672 1728 
C 774 1728 858 1811 858 1914 
C 858 2010 794 2099 672 2099 
C 640 2099 608 2093 576 2080 
z
M 1933 1527 
L 1933 898 
C 1933 475 1670 77 1229 45 
L 1190 45 
C 896 45 627 276 627 590 
C 627 1257 1363 1527 1933 1527 
z
" transform="scale(0.015625)"/>
       <path id="SFRM3583-f1" d="M 2221 2092 
C 2189 2099 2157 2105 2125 2105 
C 2022 2105 1946 2016 1946 1920 
C 1946 1824 2022 1728 2131 1728 
C 2221 1728 2310 1792 2323 1888 
L 2323 1926 
C 2323 2366 1965 2819 1440 2819 
C 717 2819 269 2069 269 1390 
C 269 718 678 32 1363 -32 
L 1427 -32 
C 1882 -32 2240 257 2368 688 
C 2374 713 2381 739 2381 765 
C 2381 784 2368 790 2355 790 
C 2285 790 2272 669 2246 604 
C 2131 276 1824 51 1498 51 
C 890 51 595 769 595 1295 
C 595 1833 710 2737 1453 2737 
C 1811 2737 2138 2443 2221 2092 
z
" transform="scale(0.015625)"/>
       <path id="SFRM3583-f2" d="M 198 2752 
L 141 1786 
L 224 1786 
C 237 2029 243 2349 378 2516 
C 512 2656 723 2676 902 2676 
L 1126 2676 
C 1286 2676 1299 2560 1299 2445 
L 1299 378 
C 1299 103 1158 77 768 77 
L 768 0 
L 2093 0 
L 2093 77 
L 1933 77 
C 1734 77 1562 103 1562 378 
L 1562 2445 
C 1562 2560 1574 2676 1734 2676 
L 1958 2676 
C 2221 2676 2534 2631 2586 2260 
C 2618 2106 2630 1946 2637 1786 
L 2720 1786 
L 2662 2752 
L 198 2752 
z
" transform="scale(0.015625)"/>
       <path id="SFRM3583-ee" d="M 1350 2816 
C 614 2726 237 2042 237 1376 
C 237 698 685 -32 1440 -32 
L 1504 -32 
C 2240 58 2624 736 2624 1382 
C 2624 2035 2182 2822 1440 2822 
C 1408 2822 1382 2816 1350 2816 
z
M 563 1274 
L 563 1376 
C 563 1856 621 2395 1114 2663 
C 1197 2702 1293 2734 1389 2734 
L 1434 2734 
C 2054 2734 2298 2012 2298 1495 
C 2298 990 2246 269 1606 77 
C 1549 64 1491 51 1434 51 
C 960 51 653 525 595 979 
C 576 1075 576 1178 563 1274 
z
" transform="scale(0.015625)"/>
       <path id="SFRM3583-2c" d="M 973 96 
C 992 46 992 -5 992 -62 
L 992 -144 
C 992 -496 877 -799 666 -1103 
C 653 -1121 621 -1146 621 -1178 
C 621 -1197 634 -1216 653 -1216 
C 710 -1216 845 -995 896 -881 
C 1011 -647 1069 -387 1069 -128 
C 1069 49 1062 416 800 416 
C 685 416 589 320 589 205 
C 589 84 698 0 800 0 
C 864 0 934 32 973 96 
z
" transform="scale(0.015625)"/>
       <path id="CMR17-6c" d="M 979 4396 
L 218 4326 
L 218 4160 
C 595 4160 653 4122 653 3817 
L 653 426 
C 653 184 627 153 218 153 
L 218 -13 
C 371 0 653 0 813 0 
C 979 0 1261 0 1414 -13 
L 1414 153 
C 1005 153 979 178 979 426 
L 979 4396 
z
" transform="scale(0.015625)"/>
       <path id="CMR17-6f" d="M 2758 1356 
C 2758 2176 2163 2816 1466 2816 
C 768 2816 173 2176 173 1356 
C 173 551 768 -64 1466 -64 
C 2163 -64 2758 551 2758 1356 
z
M 1466 51 
C 1165 51 909 230 762 480 
C 602 767 582 1126 582 1408 
C 582 1677 595 2010 762 2298 
C 890 2509 1139 2714 1466 2714 
C 1754 2714 1997 2554 2150 2330 
C 2349 2029 2349 1607 2349 1408 
C 2349 1158 2336 775 2163 467 
C 1984 173 1709 51 1466 51 
z
" transform="scale(0.015625)"/>
       <path id="CMR17-67" d="M 710 1164 
C 832 1068 1043 960 1299 960 
C 1805 960 2240 1357 2240 1888 
C 2240 2054 2189 2310 1997 2509 
C 2176 2692 2438 2752 2586 2752 
C 2611 2752 2650 2752 2682 2734 
C 2656 2728 2598 2703 2598 2605 
C 2598 2527 2656 2471 2739 2471 
C 2835 2471 2886 2533 2886 2614 
C 2886 2731 2790 2854 2586 2854 
C 2330 2854 2106 2738 1926 2580 
C 1734 2753 1504 2816 1299 2816 
C 794 2816 358 2419 358 1888 
C 358 1522 570 1292 634 1228 
C 442 1004 442 743 442 711 
C 442 545 506 302 723 168 
C 390 85 128 -169 128 -486 
C 128 -943 736 -1280 1466 -1280 
C 2170 -1280 2803 -956 2803 -479 
C 2803 384 1856 384 1363 384 
C 1216 384 954 384 922 391 
C 723 423 589 602 589 826 
C 589 883 589 1024 710 1164 
z
M 1299 1068 
C 736 1068 736 1760 736 1889 
C 736 2016 736 2708 1299 2708 
C 1862 2708 1862 2016 1862 1889 
C 1862 1760 1862 1068 1299 1068 
z
M 1466 -1171 
C 826 -1171 384 -835 384 -486 
C 384 -289 493 -105 634 -4 
C 794 104 858 104 1293 104 
C 1818 104 2547 104 2547 -486 
C 2547 -835 2106 -1171 1466 -1171 
z
" transform="scale(0.015625)"/>
       <path id="SFRM3583-c3" d="M 467 4365 
L 467 4224 
L 576 4224 
C 742 4224 877 4205 877 3955 
L 877 410 
C 877 160 768 141 467 141 
L 467 0 
L 1702 0 
L 1702 141 
L 1536 141 
C 1350 141 1184 141 1184 403 
C 1184 454 1190 505 1190 557 
L 1190 3898 
C 1190 3937 1184 3975 1184 4020 
C 1184 4160 1242 4224 1376 4224 
L 2131 4224 
C 2547 4224 2989 4185 3149 3649 
C 3219 3431 3232 3202 3258 2978 
L 3341 2978 
L 3206 4365 
L 467 4365 
z
" transform="scale(0.015625)"/>
       <path id="SFRM3583-f6" d="M 288 2749 
L 288 2679 
L 378 2679 
C 531 2679 666 2647 666 2423 
L 666 333 
C 666 109 538 77 378 77 
L 288 77 
L 288 0 
L 2176 0 
C 2470 0 2752 -32 2861 -455 
C 2899 -639 2912 -834 2925 -1024 
L 3008 -1024 
L 2925 77 
L 2835 77 
C 2675 77 2515 96 2515 333 
L 2515 2429 
C 2515 2647 2650 2679 2803 2679 
L 2893 2679 
L 2893 2749 
L 1875 2749 
L 1875 2679 
L 1965 2679 
C 2118 2679 2253 2647 2253 2424 
L 2253 281 
C 2253 154 2202 77 2061 77 
C 2010 77 1958 77 1920 77 
L 1082 77 
C 966 77 934 167 928 250 
L 928 2404 
C 928 2653 1062 2679 1229 2679 
L 1306 2679 
L 1306 2749 
L 1005 2749 
L 288 2749 
z
" transform="scale(0.015625)"/>
      </defs>
      <use xlink:href="#SFRM3583-d7" transform="scale(0.996264)"/>
      <use xlink:href="#SFRM3583-e0" transform="translate(69.320979 0) scale(0.996264)"/>
      <use xlink:href="#SFRM3583-f1" transform="translate(113.899446 0) scale(0.996264)"/>
      <use xlink:href="#SFRM3583-f2" transform="translate(153.517844 0) scale(0.996264)"/>
      <use xlink:href="#SFRM3583-ee" transform="translate(198.096311 0) scale(0.996264)"/>
      <use xlink:href="#SFRM3583-f2" transform="translate(242.674778 0) scale(0.996264)"/>
      <use xlink:href="#SFRM3583-e0" transform="translate(284.773256 0) scale(0.996264)"/>
      <use xlink:href="#SFRM3583-2c" transform="translate(329.351723 0) scale(0.996264)"/>
      <use xlink:href="#CMR17-6c" transform="translate(383.788348 0) scale(0.996264)"/>
      <use xlink:href="#CMR17-6f" transform="translate(408.659406 0) scale(0.996264)"/>
      <use xlink:href="#CMR17-67" transform="translate(454.349884 0) scale(0.996264)"/>
      <use xlink:href="#SFRM3583-c3" transform="translate(531.03982 0) scale(0.996264)"/>
      <use xlink:href="#SFRM3583-f6" transform="translate(586.749503 0) scale(0.996264)"/>
     </g>
    </g>
   </g>
   <g id="matplotlib.axis_2">
    <g id="ytick_1">
     <g id="line2d_45">
      <defs>
       <path id="mdbe9d7c97b" d="M 0 0 
L 3 0 
" style="stroke: #000000; stroke-width: 0.5"/>
      </defs>
      <g>
       <use xlink:href="#mdbe9d7c97b" x="80.242523" y="118.512134" style="stroke: #000000; stroke-width: 0.5"/>
      </g>
     </g>
     <g id="line2d_46">
      <defs>
       <path id="m3ff9b4fe6c" d="M 0 0 
L -3 0 
" style="stroke: #000000; stroke-width: 0.5"/>
      </defs>
      <g>
       <use xlink:href="#m3ff9b4fe6c" x="415.042523" y="118.512134" style="stroke: #000000; stroke-width: 0.5"/>
      </g>
     </g>
     <g id="text_5">
      <!-- $\mathdefault{10^{-1}}$ -->
      <g transform="translate(54.215853 122.62902) scale(0.12 -0.12)">
       <use xlink:href="#CMR17-31" transform="scale(0.996264)"/>
       <use xlink:href="#CMR17-30" transform="translate(45.690477 0) scale(0.996264)"/>
       <use xlink:href="#CMSY10-0" transform="translate(91.380954 36.153639) scale(0.697382)"/>
       <use xlink:href="#CMR17-31" transform="translate(145.621947 36.153639) scale(0.697382)"/>
      </g>
     </g>
    </g>
    <g id="ytick_2">
     <g id="line2d_47">
      <defs>
       <path id="m07767665e7" d="M 0 0 
L 1.5 0 
" style="stroke: #000000; stroke-width: 0.5"/>
      </defs>
      <g>
       <use xlink:href="#m07767665e7" x="80.242523" y="206.87563" style="stroke: #000000; stroke-width: 0.5"/>
      </g>
     </g>
     <g id="line2d_48">
      <defs>
       <path id="m5a5dd02348" d="M 0 0 
L -1.5 0 
" style="stroke: #000000; stroke-width: 0.5"/>
      </defs>
      <g>
       <use xlink:href="#m5a5dd02348" x="415.042523" y="206.87563" style="stroke: #000000; stroke-width: 0.5"/>
      </g>
     </g>
    </g>
    <g id="ytick_3">
     <g id="line2d_49">
      <g>
       <use xlink:href="#m07767665e7" x="80.242523" y="183.632991" style="stroke: #000000; stroke-width: 0.5"/>
      </g>
     </g>
     <g id="line2d_50">
      <g>
       <use xlink:href="#m5a5dd02348" x="415.042523" y="183.632991" style="stroke: #000000; stroke-width: 0.5"/>
      </g>
     </g>
     <g id="text_6">
      <!-- $\mathdefault{6\times10^{-2}}$ -->
      <g transform="translate(33.851046 187.749877) scale(0.12 -0.12)">
       <defs>
        <path id="CMR17-36" d="M 678 2176 
C 678 3690 1395 4032 1811 4032 
C 1946 4032 2272 4009 2400 3776 
C 2298 3776 2106 3776 2106 3553 
C 2106 3381 2246 3323 2336 3323 
C 2394 3323 2566 3348 2566 3560 
C 2566 3954 2246 4179 1805 4179 
C 1043 4179 243 3390 243 1984 
C 243 253 966 -128 1478 -128 
C 2099 -128 2688 427 2688 1283 
C 2688 2081 2170 2662 1517 2662 
C 1126 2662 838 2407 678 1960 
L 678 2176 
z
M 1478 25 
C 691 25 691 1200 691 1436 
C 691 1896 909 2560 1504 2560 
C 1613 2560 1926 2560 2138 2120 
C 2253 1870 2253 1609 2253 1289 
C 2253 944 2253 690 2118 434 
C 1978 171 1773 25 1478 25 
z
" transform="scale(0.015625)"/>
        <path id="CMSY10-2" d="M 2490 1785 
L 1210 3059 
C 1133 3136 1120 3148 1069 3148 
C 1005 3148 941 3091 941 3020 
C 941 2976 954 2963 1024 2892 
L 2304 1606 
L 1024 320 
C 954 249 941 236 941 192 
C 941 121 1005 64 1069 64 
C 1120 64 1133 76 1210 153 
L 2483 1427 
L 3808 102 
C 3821 96 3866 64 3904 64 
C 3981 64 4032 121 4032 192 
C 4032 204 4032 230 4013 262 
C 4006 275 2989 1280 2669 1606 
L 3840 2777 
C 3872 2816 3968 2899 4000 2937 
C 4006 2950 4032 2976 4032 3020 
C 4032 3091 3981 3148 3904 3148 
C 3853 3148 3827 3123 3757 3052 
L 2490 1785 
z
" transform="scale(0.015625)"/>
        <path id="CMR17-32" d="M 2669 989 
L 2554 989 
C 2490 536 2438 459 2413 420 
C 2381 369 1920 369 1830 369 
L 602 369 
C 832 619 1280 1072 1824 1597 
C 2214 1967 2669 2402 2669 3035 
C 2669 3790 2067 4224 1395 4224 
C 691 4224 262 3604 262 3030 
C 262 2780 448 2748 525 2748 
C 589 2748 781 2787 781 3010 
C 781 3207 614 3264 525 3264 
C 486 3264 448 3258 422 3245 
C 544 3790 915 4058 1306 4058 
C 1862 4058 2227 3617 2227 3035 
C 2227 2479 1901 2000 1536 1584 
L 262 146 
L 262 0 
L 2515 0 
L 2669 989 
z
" transform="scale(0.015625)"/>
       </defs>
       <use xlink:href="#CMR17-36" transform="scale(0.996264)"/>
       <use xlink:href="#CMSY10-2" transform="translate(67.829684 0) scale(0.996264)"/>
       <use xlink:href="#CMR17-31" transform="translate(167.456359 0) scale(0.996264)"/>
       <use xlink:href="#CMR17-30" transform="translate(213.146836 0) scale(0.996264)"/>
       <use xlink:href="#CMSY10-0" transform="translate(258.837313 36.153639) scale(0.697382)"/>
       <use xlink:href="#CMR17-32" transform="translate(313.078306 36.153639) scale(0.697382)"/>
      </g>
     </g>
    </g>
    <g id="ytick_4">
     <g id="line2d_51">
      <g>
       <use xlink:href="#m07767665e7" x="80.242523" y="163.981619" style="stroke: #000000; stroke-width: 0.5"/>
      </g>
     </g>
     <g id="line2d_52">
      <g>
       <use xlink:href="#m5a5dd02348" x="415.042523" y="163.981619" style="stroke: #000000; stroke-width: 0.5"/>
      </g>
     </g>
    </g>
    <g id="ytick_5">
     <g id="line2d_53">
      <g>
       <use xlink:href="#m07767665e7" x="80.242523" y="146.958826" style="stroke: #000000; stroke-width: 0.5"/>
      </g>
     </g>
     <g id="line2d_54">
      <g>
       <use xlink:href="#m5a5dd02348" x="415.042523" y="146.958826" style="stroke: #000000; stroke-width: 0.5"/>
      </g>
     </g>
    </g>
    <g id="ytick_6">
     <g id="line2d_55">
      <g>
       <use xlink:href="#m07767665e7" x="80.242523" y="131.943659" style="stroke: #000000; stroke-width: 0.5"/>
      </g>
     </g>
     <g id="line2d_56">
      <g>
       <use xlink:href="#m5a5dd02348" x="415.042523" y="131.943659" style="stroke: #000000; stroke-width: 0.5"/>
      </g>
     </g>
    </g>
    <g id="ytick_7">
     <g id="line2d_57">
      <g>
       <use xlink:href="#m07767665e7" x="80.242523" y="30.148639" style="stroke: #000000; stroke-width: 0.5"/>
      </g>
     </g>
     <g id="line2d_58">
      <g>
       <use xlink:href="#m5a5dd02348" x="415.042523" y="30.148639" style="stroke: #000000; stroke-width: 0.5"/>
      </g>
     </g>
     <g id="text_7">
      <!-- $\mathdefault{2\times10^{-1}}$ -->
      <g transform="translate(33.851046 34.265524) scale(0.12 -0.12)">
       <use xlink:href="#CMR17-32" transform="scale(0.996264)"/>
       <use xlink:href="#CMSY10-2" transform="translate(67.829684 0) scale(0.996264)"/>
       <use xlink:href="#CMR17-31" transform="translate(167.456359 0) scale(0.996264)"/>
       <use xlink:href="#CMR17-30" transform="translate(213.146836 0) scale(0.996264)"/>
       <use xlink:href="#CMSY10-0" transform="translate(258.837313 36.153639) scale(0.697382)"/>
       <use xlink:href="#CMR17-31" transform="translate(313.078306 36.153639) scale(0.697382)"/>
      </g>
     </g>
    </g>
    <g id="text_8">
     <!-- Выходная амплитуда, $\log{\dfrac{U_\text{вых}}{U_\text{вх}}}$ -->
     <g transform="translate(19.857121 195.894453) rotate(-90) scale(0.12 -0.12)">
      <defs>
       <path id="SFRM3583-c2" d="M 474 4352 
L 474 4231 
L 582 4231 
C 749 4231 883 4212 883 3962 
L 883 416 
C 883 166 774 147 474 147 
L 474 0 
L 2067 0 
C 2176 0 2278 0 2387 0 
C 2995 0 3738 369 3738 1153 
C 3738 1771 3168 2275 2554 2275 
C 2976 2391 3578 2592 3578 3297 
C 3578 3925 2989 4352 2387 4352 
L 474 4352 
z
M 1184 2225 
L 2285 2225 
C 2470 2225 2656 2225 2822 2129 
C 3168 1945 3379 1569 3379 1186 
C 3379 567 2854 147 2227 147 
C 2131 147 2029 147 1933 147 
L 1357 147 
C 1235 147 1184 217 1184 332 
L 1184 2225 
z
M 1184 2307 
L 1184 4020 
C 1184 4135 1210 4231 1357 4231 
L 1907 4231 
C 2003 4231 2099 4231 2202 4231 
C 2662 4231 3232 3962 3232 3291 
C 3232 2799 2816 2403 2342 2326 
C 2240 2307 2131 2307 2029 2307 
L 1184 2307 
z
" transform="scale(0.015625)"/>
       <path id="SFRM3583-fb" d="M 288 2752 
L 288 2688 
L 378 2688 
C 531 2688 666 2656 666 2430 
L 666 322 
C 666 96 538 64 378 64 
L 288 64 
L 288 0 
L 1747 0 
C 2150 0 2675 252 2675 760 
C 2675 1031 2483 1269 2253 1398 
C 2003 1533 1741 1533 1466 1533 
L 928 1533 
L 928 2419 
C 928 2642 1037 2688 1222 2688 
L 1306 2688 
L 1306 2752 
L 998 2752 
L 288 2752 
z
M 928 1463 
L 1536 1463 
C 1946 1463 2349 1193 2349 763 
L 2349 738 
C 2349 327 1933 64 1555 64 
L 1082 64 
C 928 64 928 198 928 353 
L 928 1463 
z
M 2835 2752 
L 2835 2688 
L 2925 2688 
C 3078 2688 3213 2656 3213 2436 
L 3213 316 
C 3213 96 3085 64 2925 64 
L 2835 64 
L 2835 0 
L 3853 0 
L 3853 64 
L 3763 64 
C 3603 64 3475 96 3475 322 
L 3475 2430 
C 3475 2656 3610 2688 3763 2688 
L 3853 2688 
L 3853 2752 
L 2835 2752 
z
" transform="scale(0.015625)"/>
       <path id="SFRM3583-f5" d="M 51 2749 
L 51 2679 
C 147 2679 250 2679 339 2634 
C 467 2570 550 2442 634 2332 
C 858 2044 1075 1750 1299 1461 
C 1325 1429 1376 1384 1376 1346 
C 1363 1275 1184 1090 1088 967 
C 998 846 896 730 806 609 
C 608 358 358 77 19 77 
L 19 0 
L 851 0 
L 851 77 
C 762 109 730 160 730 237 
C 730 435 890 588 1005 723 
C 1152 908 1299 1093 1446 1285 
C 1510 1170 1606 1067 1690 966 
C 1856 742 2202 372 2202 224 
C 2202 154 2131 77 2048 77 
L 2048 0 
L 3002 0 
L 3002 77 
C 2650 77 2566 244 2400 442 
C 2170 750 1939 1057 1696 1358 
C 1670 1391 1619 1436 1619 1481 
L 1619 1487 
C 1619 1538 1798 1730 1882 1839 
C 2093 2095 2426 2679 2906 2679 
L 2906 2749 
L 2074 2749 
L 2074 2679 
C 2157 2653 2195 2602 2195 2519 
C 2195 2308 2029 2154 1907 2008 
C 1786 1854 1670 1694 1542 1547 
C 1491 1643 1414 1726 1344 1810 
L 902 2385 
C 870 2429 851 2481 851 2525 
C 851 2589 909 2679 1005 2679 
L 1005 2749 
L 691 2749 
L 51 2749 
z
" transform="scale(0.015625)"/>
       <path id="SFRM3583-e4" d="M 832 2749 
L 832 2679 
L 915 2679 
C 1088 2679 1203 2628 1203 2443 
L 1203 2406 
C 1203 1642 1152 89 256 89 
L 173 -1024 
L 256 -1024 
C 275 -746 282 -328 448 -164 
C 582 -32 774 0 960 0 
L 2150 0 
C 2438 0 2778 0 2854 -438 
C 2899 -631 2912 -831 2925 -1024 
L 3008 -1024 
L 2925 89 
L 2835 89 
C 2675 89 2515 108 2515 344 
L 2515 2430 
C 2515 2647 2650 2679 2803 2679 
L 2893 2679 
L 2893 2749 
L 832 2749 
z
M 2246 248 
C 2246 108 2157 89 2061 89 
L 845 89 
C 806 96 774 115 768 160 
C 768 216 851 287 890 344 
C 1331 1006 1261 1979 1293 2456 
L 1293 2494 
C 1293 2609 1344 2679 1466 2679 
L 2074 2679 
C 2227 2679 2253 2578 2253 2475 
L 2253 356 
C 2253 319 2253 287 2246 248 
z
" transform="scale(0.015625)"/>
       <path id="SFRM3583-ed" d="M 288 2749 
L 288 2679 
L 378 2679 
C 531 2679 666 2647 666 2423 
L 666 333 
C 666 109 538 77 378 77 
L 288 77 
L 288 0 
L 1306 0 
L 1306 77 
L 1229 77 
C 1088 77 954 90 928 266 
L 928 1460 
L 2253 1460 
L 2253 266 
C 2227 90 2093 77 1952 77 
L 1875 77 
L 1875 0 
L 2893 0 
L 2893 77 
L 2803 77 
C 2643 77 2515 109 2515 333 
L 2515 2423 
C 2515 2647 2650 2679 2803 2679 
L 2893 2679 
L 2893 2749 
L 1875 2749 
L 1875 2679 
L 1958 2679 
C 2144 2679 2253 2633 2253 2413 
L 2253 1536 
L 928 1536 
L 928 2413 
C 928 2633 1037 2679 1222 2679 
L 1306 2679 
L 1306 2749 
L 998 2749 
L 288 2749 
z
" transform="scale(0.015625)"/>
       <path id="SFRM3583-ff" d="M 1344 1406 
C 1235 1238 1107 1078 986 918 
C 755 604 474 90 96 90 
L 96 0 
L 998 0 
L 998 77 
L 941 77 
C 883 77 787 90 787 159 
C 787 281 1024 554 1146 713 
L 1491 1189 
C 1562 1279 1600 1393 1715 1393 
C 1747 1393 1786 1393 1811 1393 
L 2182 1393 
L 2182 268 
C 2157 90 2022 77 1882 77 
L 1805 77 
L 1805 0 
L 2816 0 
L 2816 77 
L 2726 77 
C 2566 77 2438 109 2438 333 
L 2438 2423 
C 2438 2647 2573 2679 2726 2679 
L 2816 2679 
L 2816 2749 
L 1722 2749 
C 1325 2749 781 2749 512 2408 
C 435 2312 397 2203 397 2094 
C 397 1701 787 1502 1126 1438 
C 1197 1419 1274 1406 1344 1406 
z
M 2182 1475 
C 2048 1475 1907 1475 1766 1475 
C 1338 1475 723 1475 723 2087 
C 723 2633 1254 2679 1638 2679 
L 2029 2679 
C 2163 2679 2182 2557 2182 2423 
L 2182 1475 
z
" transform="scale(0.015625)"/>
       <path id="SFRM3583-ec" d="M 294 2749 
L 294 2679 
L 384 2679 
C 538 2679 672 2641 672 2423 
L 672 979 
C 672 870 678 755 678 639 
C 678 404 659 77 294 77 
L 294 0 
L 1139 0 
L 1139 77 
C 787 77 762 378 762 588 
L 768 2628 
C 813 2410 947 2168 1030 1944 
L 1549 620 
C 1606 460 1670 308 1734 148 
C 1747 103 1766 7 1824 0 
C 1894 0 2029 416 2099 614 
C 2342 1209 2560 1816 2803 2410 
C 2835 2487 2874 2570 2893 2653 
L 2899 340 
C 2899 109 2771 77 2611 77 
L 2522 77 
L 2522 0 
L 3526 0 
L 3526 77 
L 3437 77 
C 3277 77 3149 109 3149 333 
L 3149 2423 
C 3149 2647 3283 2679 3437 2679 
L 3526 2679 
L 3526 2749 
L 2938 2749 
L 2874 2737 
L 2835 2685 
L 1914 326 
L 1043 2564 
L 960 2737 
L 890 2749 
L 294 2749 
z
" transform="scale(0.015625)"/>
       <path id="SFRM3583-ef" d="M 288 2749 
L 288 2679 
L 378 2679 
C 531 2679 666 2647 666 2423 
L 666 333 
C 666 109 538 77 378 77 
L 288 77 
L 288 0 
L 1306 0 
L 1306 77 
L 1216 77 
C 1062 77 928 109 928 332 
L 928 2469 
C 928 2615 992 2679 1133 2679 
C 1178 2679 1222 2679 1254 2679 
L 2099 2679 
C 2214 2679 2240 2596 2253 2506 
L 2253 365 
C 2253 103 2125 77 1946 77 
L 1875 77 
L 1875 0 
L 2893 0 
L 2893 77 
L 2803 77 
C 2643 77 2515 109 2515 333 
L 2515 2423 
C 2515 2647 2650 2679 2803 2679 
L 2893 2679 
L 2893 2749 
L 288 2749 
z
" transform="scale(0.015625)"/>
       <path id="SFRM3583-eb" d="M 813 2749 
L 813 2679 
L 909 2679 
C 1062 2679 1203 2641 1203 2444 
L 1203 2394 
C 1203 2261 1197 2128 1184 1995 
C 1139 1463 1107 906 890 412 
C 813 241 698 51 538 51 
C 422 51 320 102 243 179 
L 282 179 
C 378 179 448 243 448 339 
C 448 441 378 512 282 512 
C 166 512 109 429 109 320 
C 115 96 326 -32 538 -32 
C 813 -32 960 335 1037 563 
C 1203 1058 1274 1634 1274 2153 
L 1274 2242 
C 1274 2489 1286 2679 1478 2679 
L 2099 2679 
C 2214 2679 2240 2597 2253 2508 
L 2253 365 
C 2253 103 2125 77 1946 77 
L 1875 77 
L 1875 0 
L 2893 0 
L 2893 77 
L 2803 77 
C 2643 77 2515 109 2515 333 
L 2515 2423 
C 2515 2647 2650 2679 2803 2679 
L 2893 2679 
L 2893 2749 
L 813 2749 
z
" transform="scale(0.015625)"/>
       <path id="SFRM3583-e8" d="M 288 2749 
L 288 2679 
L 378 2679 
C 531 2679 666 2647 666 2423 
L 666 333 
C 666 109 538 77 378 77 
L 288 77 
L 288 0 
L 1306 0 
L 1306 77 
L 1216 77 
C 1075 77 960 96 928 269 
L 928 314 
C 928 397 1005 468 1050 532 
C 1331 953 1632 1369 1926 1784 
L 2131 2078 
C 2170 2136 2214 2187 2246 2251 
L 2253 333 
C 2253 103 2112 77 1965 77 
L 1875 77 
L 1875 0 
L 2893 0 
L 2893 77 
L 2803 77 
C 2643 77 2515 109 2515 333 
L 2515 2423 
C 2515 2647 2650 2679 2803 2679 
L 2893 2679 
L 2893 2749 
L 1875 2749 
L 1875 2679 
L 1965 2679 
C 2106 2679 2221 2653 2253 2481 
L 2253 2436 
C 2253 2353 2176 2282 2131 2218 
C 1850 1797 1549 1381 1254 966 
L 1050 671 
C 1011 614 966 563 934 499 
L 928 2423 
C 928 2634 1050 2679 1216 2679 
L 1306 2679 
L 1306 2749 
L 998 2749 
L 288 2749 
z
" transform="scale(0.015625)"/>
       <path id="SFRM3583-f3" d="M 90 2819 
L 90 2749 
C 410 2749 435 2620 595 2220 
C 864 1556 1146 885 1395 215 
C 1414 164 1453 105 1453 47 
C 1453 -88 1318 -314 1261 -456 
C 1152 -752 992 -1171 627 -1171 
C 493 -1171 352 -1114 256 -1024 
C 358 -1024 448 -966 448 -851 
C 448 -755 371 -685 275 -685 
C 186 -685 109 -749 109 -864 
C 109 -1114 390 -1248 614 -1248 
L 621 -1248 
C 1043 -1248 1210 -809 1350 -460 
L 1562 63 
C 1798 657 2035 1258 2272 1852 
C 2304 1930 2336 2000 2362 2078 
C 2470 2342 2586 2737 2931 2737 
L 2931 2819 
L 2189 2819 
L 2189 2749 
C 2310 2749 2400 2620 2400 2504 
C 2400 2394 2349 2265 2310 2168 
C 2150 1775 1997 1374 1837 980 
L 1683 600 
C 1658 528 1626 464 1606 393 
L 1600 393 
C 1549 619 1427 845 1338 1058 
C 1190 1420 1050 1787 909 2149 
L 832 2343 
C 800 2413 755 2504 755 2582 
C 755 2671 832 2749 1018 2749 
L 1018 2819 
L 717 2819 
L 90 2819 
z
" transform="scale(0.015625)"/>
       <path id="CMMI12-55" d="M 3238 1474 
C 3014 581 2272 57 1670 57 
C 1210 57 896 363 896 891 
C 896 916 896 1107 966 1387 
L 1594 3887 
C 1651 4103 1664 4167 2118 4167 
C 2234 4167 2298 4167 2298 4282 
C 2298 4352 2240 4352 2202 4352 
C 2086 4352 1952 4352 1830 4352 
L 1075 4352 
C 954 4352 819 4352 698 4352 
C 653 4352 576 4352 576 4231 
C 576 4167 621 4167 742 4167 
C 1126 4167 1126 4116 1126 4046 
C 1126 4008 1082 3824 1050 3715 
L 493 1488 
C 474 1418 435 1246 435 1075 
C 435 374 941 -128 1638 -128 
C 2285 -128 3002 384 3328 1197 
C 3373 1305 3430 1530 3469 1702 
C 3533 1933 3667 2496 3712 2662 
L 3955 3623 
C 4038 3956 4090 4167 4653 4167 
C 4704 4173 4730 4224 4730 4282 
C 4730 4352 4672 4352 4646 4352 
C 4557 4352 4442 4352 4352 4352 
L 4051 4352 
C 3654 4352 3450 4352 3443 4352 
C 3405 4352 3328 4352 3328 4231 
C 3328 4167 3379 4167 3424 4167 
C 3808 4167 3834 4020 3834 3905 
C 3834 3848 3834 3828 3808 3739 
L 3238 1474 
z
" transform="scale(0.015625)"/>
       <path id="SFRM3583-e2" d="M 294 2749 
L 294 2679 
L 358 2679 
C 525 2679 666 2660 666 2423 
L 666 340 
C 666 96 525 77 358 77 
L 294 77 
L 294 0 
L 1818 0 
C 2208 32 2624 273 2669 709 
L 2669 760 
C 2669 1224 2003 1478 1722 1478 
C 1792 1511 1875 1517 1952 1544 
C 2208 1622 2541 1792 2541 2114 
C 2541 2638 1843 2749 1472 2749 
L 294 2749 
z
M 928 1460 
L 1606 1460 
C 2003 1460 2349 1176 2349 771 
L 2349 759 
C 2323 324 1946 77 1555 77 
L 1120 77 
C 979 77 928 115 928 368 
L 928 1460 
z
M 928 1536 
L 928 2425 
C 928 2549 947 2679 1120 2679 
L 1440 2679 
C 1632 2679 1811 2679 1971 2568 
C 2118 2463 2221 2293 2221 2117 
C 2221 1705 1728 1536 1440 1536 
L 928 1536 
z
" transform="scale(0.015625)"/>
      </defs>
      <use xlink:href="#SFRM3583-c2" transform="scale(0.996264)"/>
      <use xlink:href="#SFRM3583-fb" transform="translate(63.149724 0) scale(0.996264)"/>
      <use xlink:href="#SFRM3583-f5" transform="translate(127.568311 0) scale(0.996264)"/>
      <use xlink:href="#SFRM3583-ee" transform="translate(172.146762 0) scale(0.996264)"/>
      <use xlink:href="#SFRM3583-e4" transform="translate(214.245241 0) scale(0.996264)"/>
      <use xlink:href="#SFRM3583-ed" transform="translate(263.783669 0) scale(0.996264)"/>
      <use xlink:href="#SFRM3583-e0" transform="translate(313.322097 0) scale(0.996264)"/>
      <use xlink:href="#SFRM3583-ff" transform="translate(357.900564 0) scale(0.996264)"/>
      <use xlink:href="#SFRM3583-e0" transform="translate(435.897291 0) scale(0.996264)"/>
      <use xlink:href="#SFRM3583-ec" transform="translate(480.475758 0) scale(0.996264)"/>
      <use xlink:href="#SFRM3583-ef" transform="translate(539.934292 0) scale(0.996264)"/>
      <use xlink:href="#SFRM3583-eb" transform="translate(589.47272 0) scale(0.996264)"/>
      <use xlink:href="#SFRM3583-e8" transform="translate(639.011148 0) scale(0.996264)"/>
      <use xlink:href="#SFRM3583-f2" transform="translate(688.549577 0) scale(0.996264)"/>
      <use xlink:href="#SFRM3583-f3" transform="translate(733.128043 0) scale(0.996264)"/>
      <use xlink:href="#SFRM3583-e4" transform="translate(775.226415 0) scale(0.996264)"/>
      <use xlink:href="#SFRM3583-e0" transform="translate(824.764844 0) scale(0.996264)"/>
      <use xlink:href="#SFRM3583-2c" transform="translate(869.34331 0) scale(0.996264)"/>
      <use xlink:href="#CMR17-6c" transform="translate(923.779935 0) scale(0.996264)"/>
      <use xlink:href="#CMR17-6f" transform="translate(948.650994 0) scale(0.996264)"/>
      <use xlink:href="#CMR17-67" transform="translate(994.341471 0) scale(0.996264)"/>
      <use xlink:href="#CMMI12-55" transform="translate(1059.133033 67.398045) scale(0.996264)"/>
      <use xlink:href="#SFRM3583-e2" transform="translate(1125.385152 52.45413) scale(0.697382)"/>
      <use xlink:href="#SFRM3583-fb" transform="translate(1156.589942 52.45413) scale(0.697382)"/>
      <use xlink:href="#SFRM3583-f5" transform="translate(1201.682761 52.45413) scale(0.697382)"/>
      <use xlink:href="#CMMI12-55" transform="translate(1081.67945 -68.338837) scale(0.996264)"/>
      <use xlink:href="#SFRM3583-e2" transform="translate(1147.931569 -83.282752) scale(0.697382)"/>
      <use xlink:href="#SFRM3583-f5" transform="translate(1179.136359 -83.282752) scale(0.697382)"/>
      <path d="M 1059.133033 22.914133 
L 1235.121651 22.914133 
L 1235.121651 26.899083 
L 1059.133033 26.899083 
L 1059.133033 22.914133 
z
"/>
     </g>
    </g>
   </g>
   <g id="line2d_59">
    <path d="M 95.460704 16.994049 
L 135.278779 21.124906 
L 187.915411 13.68 
L 227.733485 34.235497 
L 267.55156 36.379322 
L 320.188191 90.801859 
L 360.006266 143.345428 
L 399.824341 215.28 
" clip-path="url(#p3af6f239c4)" style="fill: none; stroke: #00b945; stroke-linecap: square"/>
   </g>
   <g id="patch_3">
    <path d="M 80.242523 225.36 
L 80.242523 3.6 
" style="fill: none; stroke: #000000; stroke-width: 0.5; stroke-linejoin: miter; stroke-linecap: square"/>
   </g>
   <g id="patch_4">
    <path d="M 415.042523 225.36 
L 415.042523 3.6 
" style="fill: none; stroke: #000000; stroke-width: 0.5; stroke-linejoin: miter; stroke-linecap: square"/>
   </g>
   <g id="patch_5">
    <path d="M 80.242523 225.36 
L 415.042523 225.36 
" style="fill: none; stroke: #000000; stroke-width: 0.5; stroke-linejoin: miter; stroke-linecap: square"/>
   </g>
   <g id="patch_6">
    <path d="M 80.242523 3.6 
L 415.042523 3.6 
" style="fill: none; stroke: #000000; stroke-width: 0.5; stroke-linejoin: miter; stroke-linecap: square"/>
   </g>
  </g>
 </g>
 <defs>
  <clipPath id="p3af6f239c4">
   <rect x="80.242523" y="3.6" width="334.8" height="221.76"/>
  </clipPath>
 </defs>
</svg>
